# xmcd
#
# Track frame offsets: 
#        150
#        14696
#        27446
#        44143
#        66787
#        87148
#        108403
#        119913
#        135127
#
# Disc length: 1949 seconds
#
# Revision: 0
# Processed by: cddbd v1.5.2PL0 Copyright (c) Steve Scherf et al.
# Submitted via: ExactAudioCopyFreeDBPlugin 1.0
#
DISCID=7d079b09
DTITLE=Meaghan Owens, Miss - Demo
DYEAR=2009
DGENRE=Pop-Folk
TTITLE0=Honey Bee
TTITLE1=Texas Girlstorm Devil Thang
TTITLE2=Copper Pennies
TTITLE3=My Bad News
TTITLE4=Trick Riders
TTITLE5=Dusty Old Road
TTITLE6=When We Were Kids
TTITLE7=Saturday Girl
TTITLE8=Au Cabaret
EXTD=
EXTT0=
EXTT1=
EXTT2=
EXTT3=
EXTT4=
EXTT5=
EXTT6=
EXTT7=
EXTT8=
PLAYORDER=
